<svg id="Ninja_Software_Badge_x_1000_Dark" data-name="Ninja Software Badge x 1000 Dark" xmlns="http://www.w3.org/2000/svg" width="118.126" height="103.736" viewBox="0 0 118.126 103.736">
  <g id="Group_17" data-name="Group 17" transform="translate(0 0)">
    <path id="Path_381" data-name="Path 381" d="M32.153,103.728a11.1,11.1,0,0,1-9.583-6.312L1.287,57.281a11.128,11.128,0,0,1-.025-10.341L8.5,33.075l14.132-27.1A11.074,11.074,0,0,1,32.465.021H83.043a11.1,11.1,0,0,1,10.3,5.538l23.337,41.018a11.038,11.038,0,0,1,1.378,4.283.108.108,0,0,0,0,.014v0a11.1,11.1,0,0,1-1.4,6.689L95.284,94.8l-.612,1.067-1.289,2.247a11.109,11.109,0,0,1-9.907,5.563l-49.43.054-1.464,0h-.358Z" fill="#1a1a1a"/>
    <g id="Group_13" data-name="Group 13" transform="translate(9.874 9.646)">
      <g id="Path_363" data-name="Path 363" transform="translate(0.006 0.001)">
        <path id="Path_366" data-name="Path 366" d="M24.456,84.662a4.521,4.521,0,0,1-.005-9.041L69.3,75.572,85.683,47.015l-81.162.012A4.521,4.521,0,0,1,.513,40.414L20.342,2.428A4.521,4.521,0,0,1,24.349,0H71.88a4.521,4.521,0,0,1,0,9.041H27.089L11.98,37.984l81.508-.011a4.52,4.52,0,0,1,3.922,6.77l-21.567,37.6a4.521,4.521,0,0,1-3.916,2.271l-47.466.051Z" transform="translate(0 0)" fill="#fff"/>
      </g>
      <g id="Path_364" data-name="Path 364" transform="translate(0 0.002)">
        <path id="Path_367" data-name="Path 367" d="M24.466,84.658a4.52,4.52,0,0,1-4-2.4L.527,44.648A4.52,4.52,0,0,1,.513,40.44L20.334,2.432a4.521,4.521,0,0,1,7.834-.319L71.748,71.32l16.557-28.84L67.98,6.757a4.52,4.52,0,0,1,7.858-4.471l21.6,37.97a4.52,4.52,0,0,1-.009,4.486l-21.584,37.6A4.521,4.521,0,0,1,68.1,82.5L24.711,13.591,9.628,42.513,28.456,78.018a4.522,4.522,0,0,1-3.99,6.639Z" transform="translate(0 0)" fill="#fff"/>
      </g>
      <g id="Path_362" data-name="Path 362" transform="translate(0 0.002)" opacity="0.501">
        <path id="Path_369" data-name="Path 369" d="M24.466,84.658a4.52,4.52,0,0,1-4-2.4L.527,44.648A4.52,4.52,0,0,1,.513,40.44L20.334,2.432a4.521,4.521,0,0,1,7.834-.319L71.748,71.32l16.557-28.84L67.98,6.757a4.52,4.52,0,0,1,7.858-4.471l21.6,37.97a4.52,4.52,0,0,1-.009,4.486l-21.584,37.6A4.521,4.521,0,0,1,68.1,82.5L24.711,13.591,9.628,42.513,28.456,78.018a4.522,4.522,0,0,1-3.99,6.639Z" transform="translate(0 0)" fill="#fff"/>
      </g>
      <path id="Path_1079" data-name="Path 1079" d="M24.459,84.66A4.513,4.513,0,0,1,20.383,82.1L.524,44.649a4.58,4.58,0,0,1-.008-4.238L7.847,26.371,20.332,2.432A4.539,4.539,0,0,1,24.352,0h47.53c.1,0,.2,0,.305.008a4.523,4.523,0,0,1,3.648,2.279l21.6,37.968a4.524,4.524,0,0,1-.011,4.487L77.517,79.422l-1.672,2.916a4.512,4.512,0,0,1-3.915,2.269l-47.467.052Zm2.721-9.044,36.56-.038L45.756,47.021l-33.739,0Zm44.564-4.3,13.943-24.3H56.442ZM11.987,37.983l28.078,0L24.713,13.6,15.395,31.446Zm38.761,0,34.988-.007L69.276,9.039H32.527Z" transform="translate(0.003 0)" fill="#fff" stroke="rgba(0,0,0,0)" stroke-width="1"/>
    </g>
  </g>
</svg>
