<svg xmlns="http://www.w3.org/2000/svg" width="1501" height="215.052" viewBox="0 0 1501 215.052">
  <path id="Ninja_Software_x_1500_White" data-name="Ninja Software x 1500 White" d="M320.234,186.662c11.968,0,18.873-5.754,18.873-17.953V50.176h29.921V170.321c0,29.461-16.8,43.731-48.795,43.731Zm1053.637-77.8c0-34.985,27.16-61.454,63.065-61.454S1500,73.882,1500,109.1a48.773,48.773,0,0,1-.921,10.127h-93.216c3.913,14.961,15.881,24.627,31.532,24.627,12.889,0,23.707-5.984,28.31-14.04H1497.7c-8.516,23.937-31.763,40.509-60.763,40.509C1401.03,170.321,1373.871,143.852,1373.871,108.867Zm32.453-11.508h61.453a31.526,31.526,0,0,0-30.842-23.707C1421.975,73.652,1410.237,83.089,1406.324,97.359ZM1222.8,170.272a68.231,68.231,0,0,1-15.931-2.457,63.169,63.169,0,0,1-14.148-5.881,60.316,60.316,0,0,1-11.94-8.889,59.194,59.194,0,0,1-9.307-11.482,59.849,59.849,0,0,1-6.731-15.29,65.005,65.005,0,0,1,0-34.814,59.848,59.848,0,0,1,6.731-15.29l.052-.091a59.374,59.374,0,0,1,9.255-11.391,60.317,60.317,0,0,1,11.94-8.889,63.169,63.169,0,0,1,14.148-5.881,68.166,68.166,0,0,1,15.931-2.457c.869-.032,1.755-.048,2.634-.048a68.969,68.969,0,0,1,17.715,2.273,63.144,63.144,0,0,1,15.582,6.449v-5.96h29.921V167.559h-29.921V161.6a63.127,63.127,0,0,1-15.582,6.449,68.918,68.918,0,0,1-17.715,2.273C1224.559,170.321,1223.673,170.3,1222.8,170.272Zm-20.382-84.537a33.662,33.662,0,0,0,0,46.263,32.048,32.048,0,0,0,23.016,9.322h.425a33.59,33.59,0,0,0,12.742-2.593,30.554,30.554,0,0,0,10.066-6.862,33.911,33.911,0,0,0,0-46,30.554,30.554,0,0,0-10.066-6.862,33.542,33.542,0,0,0-12.742-2.59l-.425,0A32.048,32.048,0,0,0,1202.422,85.736ZM679.031,108.867c0-34.985,27.159-61.454,63.065-61.454s63.065,26.469,63.065,61.454S778,170.321,742.1,170.321,679.031,143.852,679.031,108.867Zm30.842,0c0,18.413,13.81,32.453,32.223,32.453,18.643,0,32.223-14.04,32.223-32.453S760.739,76.414,742.1,76.414C723.683,76.414,709.873,90.454,709.873,108.867ZM560.217,120.605H592.9c0,11.968,9.9,21.405,22.786,21.405,12.2,0,21.635-7.826,21.635-17.953,0-11.968-13.119-18.643-29.921-22.786-23.707-6.214-44.882-20.024-44.882-49.025,0-26.239,22.556-46.263,52.247-46.263,30.151,0,52.937,20.485,52.937,47.644H635.02c0-11.048-8.746-19.334-20.254-19.334-11.048,0-19.564,7.135-19.564,16.572,0,11.508,10.818,17.953,27.62,22.326C647.679,79.636,670,91.835,670,122.217c0,27.389-23.707,48.1-54.779,48.1C583.924,170.321,560.217,148.915,560.217,120.605Zm-116.13,49.667a68.222,68.222,0,0,1-15.931-2.457,63.145,63.145,0,0,1-14.148-5.881,60.287,60.287,0,0,1-11.94-8.889,59.151,59.151,0,0,1-9.307-11.482,59.887,59.887,0,0,1-6.732-15.29,65.033,65.033,0,0,1,0-34.814,59.886,59.886,0,0,1,6.732-15.29l.051-.091a59.378,59.378,0,0,1,9.256-11.391,60.288,60.288,0,0,1,11.94-8.889,63.145,63.145,0,0,1,14.148-5.881,68.156,68.156,0,0,1,15.931-2.457c.868-.032,1.754-.048,2.634-.048a68.958,68.958,0,0,1,17.713,2.273,63.151,63.151,0,0,1,15.583,6.449v-5.96h29.921V167.559H480.018V161.6a63.118,63.118,0,0,1-15.583,6.449,68.908,68.908,0,0,1-17.713,2.273C445.841,170.321,444.955,170.3,444.087,170.272ZM423.7,85.736a33.662,33.662,0,0,0,0,46.263,32.044,32.044,0,0,0,23.016,9.322h.425a33.589,33.589,0,0,0,12.741-2.593,30.546,30.546,0,0,0,10.067-6.862,33.911,33.911,0,0,0,0-46,30.545,30.545,0,0,0-10.067-6.862,33.541,33.541,0,0,0-12.741-2.59l-.425,0A32.044,32.044,0,0,0,423.7,85.736ZM957.2,167.6c-31.993,0-48.794-14.27-48.794-43.731l-.029-46.3H856.539v89.994H826.618V77.565H808.2V50.176h18.413V45.112C826.618,13.119,843.88,0,880.706,0V27.159c-15.881,0-24.167,5.524-24.167,19.564v3.452h51.837V22.1L938.3,15.651V50.176H962V77.565H938.3l.029,44.688c0,12.2,6.9,17.953,18.873,17.953H962V167.6Zm351.023-.037V50.176h29.921V67.438c8.516-11.968,20.484-19.1,34.294-19.1V79.176c-22.1,0-34.294,12.659-34.294,32.453v55.93Zm-216,0-26.008-81.478-26.009,81.478h-30.842L966.557,50.176h34.294l24.628,79.406,25.778-79.406h30.612l26.008,79.636L1132.5,50.176h33.374l-42.81,117.383Zm-801.94,0V102.653c0-15.881-10.127-26.239-25.548-26.239-16.572,0-27.62,10.588-27.62,26.7v64.446H207.2V50.176h29.921v14.5C246.095,53.4,258.984,47.414,274.4,47.414c27.62,0,45.8,17.953,45.8,45.572v74.573Zm-132.6,0V50.176h29.921V167.559Zm-53.653,0L31.762,63.295V167.559H0V8.746H32.223L104.494,113.01V8.746h31.762V167.559Zm1069.007-23.381a58.058,58.058,0,0,0,7.21,9.2l0,0A57.752,57.752,0,0,1,1173.041,144.178Zm-778.718,0q1.578,2.492,1.577,2.494S395.373,145.841,394.322,144.178Zm780.3-72.992a57.344,57.344,0,0,1,5.621-6.827,58,58,0,0,0-5.618,6.828Zm-778.717,0a57.456,57.456,0,0,1,5.619-6.827,58.03,58.03,0,0,0-5.618,6.828ZM337.275,25.03a16.794,16.794,0,0,1,33.585,0,16.794,16.794,0,0,1-33.585,0Zm-181.42,0a16.793,16.793,0,0,1,33.584,0,16.793,16.793,0,0,1-33.584,0Z" transform="translate(0.5 0.5)" fill="currentColor" stroke="rgba(0,0,0,0)" stroke-width="1"/>
</svg>
