<?xml version="1.0" encoding="UTF-8"?>
<svg xmlns="http://www.w3.org/2000/svg" xmlns:xlink="http://www.w3.org/1999/xlink" width="20px" height="24px" viewBox="0 0 20 24" version="1.1">
<g id="surface1">
<path style=" stroke:none;fill-rule:nonzero;fill:rgb(99.607843%,84.313725%,18.039216%);fill-opacity:1;" d="M 9.957031 23.984375 C 9.746094 23.984375 9.535156 23.929688 9.351562 23.828125 L 1.492188 19.402344 C 1.449219 19.378906 1.421875 19.332031 1.421875 19.277344 L 1.421875 14.625 C 1.421875 14.574219 1.449219 14.527344 1.492188 14.503906 C 1.539062 14.476562 1.59375 14.476562 1.640625 14.5 L 9.683594 19.039062 C 9.847656 19.132812 10.050781 19.132812 10.214844 19.042969 L 12.042969 18.03125 C 12.066406 18.019531 12.089844 18.011719 12.117188 18.011719 C 12.140625 18.011719 12.167969 18.019531 12.1875 18.03125 L 16.378906 20.398438 C 16.425781 20.425781 16.453125 20.472656 16.453125 20.523438 C 16.453125 20.574219 16.425781 20.621094 16.378906 20.648438 L 10.554688 23.835938 C 10.371094 23.933594 10.167969 23.984375 9.957031 23.984375 Z M 19.90625 20.160156 L 0 8.882812 L 0 4.296875 C 0 4.183594 0.015625 4.066406 0.0429688 3.957031 L 20.011719 15.269531 L 20.007812 19.628906 C 20.007812 19.8125 19.972656 19.992188 19.90625 20.160156 Z M 18.527344 9.496094 C 18.5 9.496094 18.476562 9.488281 18.453125 9.476562 L 10.410156 4.949219 C 10.328125 4.902344 10.238281 4.878906 10.140625 4.878906 C 10.050781 4.878906 9.960938 4.902344 9.878906 4.945312 L 8.050781 5.957031 C 8.027344 5.96875 8.003906 5.972656 7.980469 5.972656 C 7.953125 5.972656 7.929688 5.96875 7.90625 5.953125 L 3.714844 3.589844 C 3.667969 3.5625 3.640625 3.515625 3.640625 3.464844 C 3.640625 3.410156 3.667969 3.363281 3.714844 3.339844 L 9.542969 0.152344 C 9.914062 -0.0546875 10.371094 -0.0507812 10.746094 0.160156 L 18.601562 4.582031 C 18.644531 4.609375 18.675781 4.65625 18.675781 4.707031 L 18.675781 9.351562 C 18.675781 9.433594 18.609375 9.496094 18.527344 9.496094 Z M 18.527344 9.496094 "/>
</g>
</svg>
