<svg xmlns="http://www.w3.org/2000/svg" width="662.389" height="811.535" viewBox="0 0 662.389 811.535">
  <path id="Path_34381" data-name="Path 34381" d="M329.638,811.536h-.015a40.326,40.326,0,0,1-20.126-5.379L49.454,656.49a4.9,4.9,0,0,1-2.426-4.218V494.859a4.852,4.852,0,0,1,7.263-4.218L320.559,644.173a17.77,17.77,0,0,0,17.594.076l60.5-34.169a5.054,5.054,0,0,1,2.4-.626,4.788,4.788,0,0,1,2.411.657l138.734,80.044a4.849,4.849,0,0,1-.061,8.435L349.322,806.416A40.571,40.571,0,0,1,329.638,811.536Zm329.241-129.4L0,300.54V145.433a50.255,50.255,0,0,1,1.373-11.6L662.389,516.68l-.122,147.481a49.173,49.173,0,0,1-3.38,17.952ZM613.255,321.307a4.636,4.636,0,0,1-2.4-.657L344.576,167.393a17.674,17.674,0,0,0-8.865-2.369,17.887,17.887,0,0,0-8.728,2.292l-60.5,34.169a5.012,5.012,0,0,1-2.38.611,4.807,4.807,0,0,1-2.426-.642L122.941,121.4A4.849,4.849,0,0,1,123,112.96L315.829,5.135a40.32,40.32,0,0,1,39.81.244l260.042,149.7a4.855,4.855,0,0,1,2.441,4.2v157.17A4.869,4.869,0,0,1,613.255,321.307Z" fill="#fed72e"/>
</svg>
