<svg xmlns="http://www.w3.org/2000/svg" width="639.002" height="70.813" viewBox="0 0 639.002 70.813">
  <g id="Supremacy_White" data-name="Supremacy White" transform="translate(-69.5 -490.223)">
    <g id="Group_11482" data-name="Group 11482" transform="translate(-3.648 405.23)">
      <path id="Path_34108" data-name="Path 34108" d="M10.517.809h49.06L69.693-9.307V-33.281L59.578-43.4H31.76l-2.529-2.529v-3.844L31.76-52.3H68.176l1.517-1.517V-68.483L68.176-70H19.116L9-59.884v23.974L19.116-25.8H46.933l2.529,2.529v3.844l-2.529,2.529H10.517L9-15.376V-.708Z" transform="translate(64.148 154.996)" fill="#fff"/>
      <path id="Path_34107" data-name="Path 34107" d="M76.268-70h-17.2l-1.517,1.517v49.06l-2.529,2.529H31.76l-2.529-2.529v-49.06L27.714-70h-17.2L9-68.483V-9.307L19.116.809H67.67L77.786-9.307V-68.483Z" transform="translate(128.888 154.996)" fill="#fff"/>
      <path id="Path_34106" data-name="Path 34106" d="M9-.708,10.517.809h17.2L29.231-.708V-14.769H67.67L77.786-24.885v-35L67.67-70H10.517L9-68.483ZM29.231-32.471V-52.3H55.026l2.529,2.529V-35l-2.529,2.529Z" transform="translate(201.72 154.996)" fill="#fff"/>
      <path id="Path_34100" data-name="Path 34100" d="M10.517.809h17.2L29.231-.708V-14.635H55.026l2.529,2.529v11.4L59.072.809h17.2L77.786-.708v-11.8L70.155-23V-23.6l7.631-10.05V-59.884L67.67-70H10.517L9-68.483V-.708ZM29.231-32.337V-52.3H55.026l2.529,2.529v14.9l-2.529,2.529Z" transform="translate(274.552 154.996)" fill="#fff"/>
      <path id="Path_34101" data-name="Path 34101" d="M10.517.809H68.176L69.693-.708V-15.376l-1.517-1.517H29.231v-8.7h30.65L61.4-27.11V-41.778l-1.517-1.517H29.231v-9H68.176l1.517-1.517V-68.483L68.176-70H10.517L9-68.483V-.708Z" transform="translate(347.384 154.996)" fill="#fff"/>
      <path id="Path_34145" data-name="Path 34145" d="M20950.2-5196.189l-1.514-1.523v-36.516l-18.254,23.214h-2.781l-18.418-23.214v36.516l-1.52,1.523h-17.2l-1.518-1.523v-67.773l1.518-1.517h17l1.719,1.114,18.529,25.247,2.572,0,18.451-25.251,1.719-1.114h16.9l1.514,1.517v67.773l-1.514,1.523Z" transform="translate(-20467.879 5351.995)" fill="#fff"/>
      <path id="Path_34103" data-name="Path 34103" d="M10.517.809h17.2L29.231-.708v-14.08H57.555V-.708L59.072.809h17.2L77.786-.708V-59.884L67.67-70H19.116L9-59.884V-.708Zm18.714-33.3V-49.769L31.76-52.3H55.026l2.529,2.529V-32.49Z" transform="translate(496.083 154.996)" fill="#fff"/>
      <path id="Path_34104" data-name="Path 34104" d="M67.67-70H19.116L9-59.884V-9.307L19.116.809H67.67L77.786-9.307v-14.87l-1.517-1.517h-17.2l-1.517,1.517v4.754l-2.529,2.529H31.76l-2.529-2.529V-49.769L31.76-52.3H55.026l2.529,2.529v4.754L59.072-43.5h17.2l1.517-1.517v-14.87Z" transform="translate(568.915 154.996)" fill="#fff"/>
      <path id="Path_34144" data-name="Path 34144" d="M20891.459-5196.35l-2.461-2.463v-9.993l16.492-21.112v-3.514L20889-5254.539v-9.935l2.525-2.527h13.418l13.385,17.135h2.75l13.381-17.135h13.383l2.561,2.564v9.9l-45.459,58.189Z" transform="translate(-20238.252 5352.002)" fill="#fff"/>
      <path id="Path_34228" data-name="Path 34228" d="M22754.412,21503.607h-14.957l-1.213-1.209,17.4-22.4,1.232,1.223.006.006v19.912l-2.473,2.471Z" transform="translate(-22044.732 -21347.877)" fill="#fff"/>
    </g>
  </g>
</svg>
