<svg xmlns="http://www.w3.org/2000/svg" width="711.065" height="711.083" viewBox="0 0 711.065 711.083">
  <g id="XSYN_Logomark_White" data-name="XSYN Logomark White" transform="translate(-13619.944 27.084)">
    <path id="Path_107505" data-name="Path 107505" d="M691.05,3217.5l69.444,69.444v34.57L581.866,3500.14l-30.2,30.2,30.2,30.2L760.494,3739.16v34.57l-69.444,69.444H656.5L477.851,3664.545l-30.2-30.194-30.195,30.2L238.833,3843.174H204.28l-69.443-69.444v-34.57l178.625-178.625,164.409-164.392L656.5,3217.5Zm17.688-42.7H638.809L447.674,3365.948,283.268,3530.336,92.133,3721.471v69.948l94.458,94.459h69.93l191.134-191.135,191.153,191.135h69.929l94.459-94.459v-69.948L612.062,3530.336,803.2,3339.2v-69.948Z" transform="translate(13527.811 -3201.879)" fill="#fff"/>
    <path id="Path_107506" data-name="Path 107506" d="M238.833,3217.5l112.712,112.712L247.539,3434.217l-112.7-112.7v-34.571L204.28,3217.5Zm17.689-42.7h-69.93l-94.459,94.458V3339.2L247.539,3494.61l164.4-164.4Z" transform="translate(13527.811 -3201.879)" fill="#fff"/>
  </g>
</svg>
