<svg xmlns="http://www.w3.org/2000/svg" width="30.749" height="28.544" viewBox="0 0 30.749 28.544">
  <g id="Zaibatsu_Logo" data-name="Zaibatsu Logo" transform="translate(0.5 0.5)">
    <path id="Path_28322" data-name="Path 28322" d="M27.487,850.258a.47.47,0,0,1-.276-.078.234.234,0,0,1-.112-.2v-2.362h.776V849.7h1.1v-2.079h.777v2.362a.235.235,0,0,1-.112.2.47.47,0,0,1-.276.078Zm-4.353,0v-.56h1.531V849.2H23.521a.462.462,0,0,1-.272-.081.24.24,0,0,1-.116-.2v-1.03a.236.236,0,0,1,.116-.2.463.463,0,0,1,.272-.081h1.912v.56H23.91v.464h1.142a.445.445,0,0,1,.269.081.242.242,0,0,1,.112.2v1.054a.242.242,0,0,1-.112.2.444.444,0,0,1-.269.081Zm-3.151,0v-2.079h-.754v-.554h2.277v.554h-.754v2.079Zm-2.569,0-.254-.621H15.95l-.261.621H14.9l1.068-2.627h1.172l1.068,2.627Zm-1.232-1.187h.739l-.366-.886ZM11,850.258v-2.633h2.21a.451.451,0,0,1,.265.081.24.24,0,0,1,.116.2v2.073a.233.233,0,0,1-.116.2.462.462,0,0,1-.265.078Zm.762-.555h1.068v-.476H11.761Zm0-1.042h1.068v-.47H11.761Zm-3.248,1.6v-2.633h.769v2.633Zm-2.285,0-.254-.621H4.764l-.262.621H3.711l1.068-2.627H5.951l1.068,2.627ZM5,849.071h.739l-.366-.886Zm-5,1.187v-.579l1.314-1.494H0v-.56H2.345v.488L.993,849.7H2.345v.56Z" transform="translate(0 -827.361)" fill="#fff" stroke="rgba(0,0,0,0)" stroke-width="1"/>
    <path id="Path_29285" data-name="Path 29285" d="M-201.029-377.4a8.685,8.685,0,0,1-2.383,3.993l.347.578a9.757,9.757,0,0,0,2.463-4.34v4.571a.369.369,0,0,1-.409.418c-.3,0-.614-.018-.952-.044l.133.6h1.032a.723.723,0,0,0,.818-.809V-377.4h1.076v-.578h-1.076v-1.69h-.623v1.69h-2.419v.578Zm-5.46-1.948v5.389h3v-5.389Zm2.374,4.82h-1.752v-1.085h1.752Zm-1.752-1.619v-1.023h1.752v1.023Zm0-1.565v-1.067h1.752v1.067Zm1.69,4.046-.471.293a11.7,11.7,0,0,1,.987,1.592l.489-.347A12.606,12.606,0,0,0-204.178-373.668Zm-1.654.071a9.726,9.726,0,0,1-1.049,1.672l.534.276a8.817,8.817,0,0,0,1.041-1.7Zm.969,10.275v2.624h.542v-3.219a5.636,5.636,0,0,0,.658-1.076l-.48-.231a5.078,5.078,0,0,1-1.619,1.9l.187.614C-205.325-362.9-205.085-363.108-204.862-363.322Zm4.109-.943-1.734.382q-.053-.534-.053-1.2h-.551a11.749,11.749,0,0,0,.071,1.316l-.943.213.08.525.943-.2a4.228,4.228,0,0,0,.151.64c.062.187.133.365.2.534a5,5,0,0,1-1.325.587l.32.5a5.186,5.186,0,0,0,1.272-.587,1.821,1.821,0,0,0,.231.3,1.124,1.124,0,0,0,.818.454.584.584,0,0,0,.454-.293l.116.436c.249.009.5.018.747.018.445,0,.676-.249.676-.738v-6.99h-3.335v2.828h2.7v3.958c0,.249-.1.374-.276.374s-.347-.009-.542-.027a5.822,5.822,0,0,0,.276-.6l-.445-.285q-.213.72-.4.747a.841.841,0,0,1-.551-.4l-.053-.08a5.226,5.226,0,0,0,1.147-1.334l-.462-.24a4.478,4.478,0,0,1-.934,1.067,3.886,3.886,0,0,1-.187-.569,2.78,2.78,0,0,1-.08-.409l1.743-.382Zm-.943-.934-.391.151a5.247,5.247,0,0,1,.445.809l.4-.178A4,4,0,0,0-201.7-365.2Zm-4.3-1.521h2.028v.658h-2.028Zm2.028-.5h-2.028v-.64h2.028Zm1.965.5h2.09v.658H-202Zm2.09-.5H-202v-.623h2.09Zm-3.433-1.156h-3.282v7.791h.631v-4.954h2.65Z" transform="translate(228.653 379.671)" fill="#fff"/>
    <path id="Path_29282" data-name="Path 29282" d="M12.524,19.089l7.634-7.229v7.229ZM0,19.089v-3.7L16.251,0h3.908V3.7L3.908,19.089ZM0,0H7.634L0,7.229Z" transform="translate(0 0)" fill="#fff" stroke="rgba(0,0,0,0)" stroke-width="1"/>
    <path id="Path_29286" data-name="Path 29286" d="M4.631-53.112h.363v1.57H4.631v-.528h-.51v.528h-.37v-1.57h.37v.708h.51Zm2.32.338H6.136v.287h.449v.33H6.136v.284h.815v.33H5.773v-1.57H6.951Zm1.871,1.232-.122-.37H8.119l-.126.37H7.612l.514-1.566H8.69L9.2-51.542ZM8.41-52.778l-.18.528h.356Zm2.468-.334h.377l-.467,1.57H10.22l-.471-1.57h.377l.377,1.228Zm2.525,0-.589.851v.718h-.37v-.718l-.589-.851h.506l.269.384.266-.384Zm2.626,1.57h-.37v-1.57h.37Zm2.317-1.57v1.57h-.323l-.7-1.063v1.063h-.366v-1.57h.528l.5.754v-.754Zm1.85,0a.187.187,0,0,1,.129.048.155.155,0,0,1,.054.12v1.236a.15.15,0,0,1-.054.119.191.191,0,0,1-.129.047h-1.06v-1.57Zm-.187.338H19.5v.9h.506Zm2.267,1.232h-.9a.2.2,0,0,1-.133-.047.15.15,0,0,1-.054-.119v-1.408h.374v1.239h.528v-1.239h.374v1.408a.15.15,0,0,1-.054.119A.2.2,0,0,1,22.275-51.542Zm1.961,0h-.923v-.334h.736v-.295H23.5a.193.193,0,0,1-.131-.048.153.153,0,0,1-.056-.12v-.614a.15.15,0,0,1,.056-.117.193.193,0,0,1,.131-.048h.92v.334h-.733v.277h.55a.187.187,0,0,1,.129.048.155.155,0,0,1,.054.12v.629a.155.155,0,0,1-.054.12A.187.187,0,0,1,24.236-51.542Zm2.019-1.57v.33h-.363v1.239h-.37v-1.239h-.363v-.33Zm1.782,1.57-.359-.539h-.266v.539h-.37v-1.57h1.067a.191.191,0,0,1,.133.048.152.152,0,0,1,.054.117v.7a.155.155,0,0,1-.054.12.191.191,0,0,1-.133.048l.359.539Zm-.625-.873h.514v-.363h-.514Zm2.155.873H29.2v-1.57h.37Zm2.04-1.232h-.815v.287h.449v.33h-.449v.284h.815v.33H30.429v-1.57h1.178Zm1.71,1.232h-.923v-.334h.736v-.295h-.55a.193.193,0,0,1-.131-.048.153.153,0,0,1-.056-.12v-.614a.15.15,0,0,1,.056-.117.193.193,0,0,1,.131-.048h.92v.334h-.733v.277h.55a.187.187,0,0,1,.129.048.155.155,0,0,1,.054.12v.629a.155.155,0,0,1-.054.12A.187.187,0,0,1,33.317-51.542Z" transform="translate(-3.751 77.193)" fill="#fff"/>
    <path id="Path_29287" data-name="Path 29287" d="M0,976.657v-.716H29.749v.716Z" transform="translate(0 -949.113)" fill="#fff" stroke="rgba(0,0,0,0)" stroke-width="1"/>
  </g>
</svg>
