<svg fill="#4CC9F0" height="512" viewBox="0 0 176 176" width="512" xmlns="http://www.w3.org/2000/svg"><g id="Layer_2" data-name="Layer 2"><g id="_36.approximatly_equal" data-name="36.approximatly equal"><path d="m173 31.48a32 32 0 0 0 -28.48-28.48 530 530 0 0 0 -113 0 32 32 0 0 0 -28.52 28.48 532.59 532.59 0 0 0 0 113 32 32 0 0 0 28.48 28.52 530 530 0 0 0 113 0 32 32 0 0 0 28.52-28.48 532.59 532.59 0 0 0 0-113.04zm-61.08 76.52a18.49 18.49 0 0 1 -13.45 5.26 16.1 16.1 0 0 1 -6.38-1.18 45.59 45.59 0 0 1 -6.37-3.51 31.52 31.52 0 0 0 -4.94-2.86 11 11 0 0 0 -4.42-.91 8.87 8.87 0 0 0 -5.91 2.2 9.17 9.17 0 0 0 -3.06 6h-10.65q1.94-10.9 7.26-16.16a18.3 18.3 0 0 1 13.4-5.27 16.54 16.54 0 0 1 6.43 1.17 43.41 43.41 0 0 1 6.44 3.52c2.16 1.29 3.87 2.26 5.13 2.85a9.55 9.55 0 0 0 4.23.92 8.71 8.71 0 0 0 5.78-2.15 9.14 9.14 0 0 0 3-6h10.79q-1.88 10.87-7.28 16.12zm0-28.87a18.49 18.49 0 0 1 -13.45 5.26 16.11 16.11 0 0 1 -6.38-1.16 46.85 46.85 0 0 1 -6.37-3.52 31.52 31.52 0 0 0 -4.94-2.86 11.13 11.13 0 0 0 -4.42-.85 8.87 8.87 0 0 0 -5.91 2.15 9.17 9.17 0 0 0 -3.06 6h-10.65q1.94-10.91 7.26-16.15a18.3 18.3 0 0 1 13.4-5.27 16.54 16.54 0 0 1 6.43 1.17 43.24 43.24 0 0 1 6.44 3.51q3.24 2 5.13 2.87a9.68 9.68 0 0 0 4.23.9 8.74 8.74 0 0 0 5.79-2.18 9.19 9.19 0 0 0 3-6.06h10.79q-1.89 10.97-7.29 16.22z"/></g></g></svg>