<?xml version="1.0" encoding="UTF-8"?>
<svg xmlns="http://www.w3.org/2000/svg" xmlns:xlink="http://www.w3.org/1999/xlink" width="48px" height="px" viewBox="0 0 48 38" version="1.1">
<g id="surface1">
<path style=" stroke:none;fill-rule:nonzero;fill:rgb(100%,100%,100%);fill-opacity:1;" d="M 40.632812 3.382812 C 37.578125 1.953125 34.296875 0.890625 30.867188 0.289062 C 30.804688 0.273438 30.742188 0.304688 30.703125 0.359375 C 30.28125 1.132812 29.820312 2.132812 29.492188 2.914062 C 25.804688 2.351562 22.132812 2.351562 18.515625 2.914062 C 18.1875 2.109375 17.703125 1.132812 17.28125 0.359375 C 17.25 0.304688 17.1875 0.273438 17.125 0.289062 C 13.695312 0.890625 10.414062 1.945312 7.351562 3.382812 C 7.328125 3.398438 7.304688 3.414062 7.289062 3.4375 C 1.070312 12.9375 -0.640625 22.210938 0.195312 31.359375 C 0.203125 31.40625 0.226562 31.445312 0.257812 31.476562 C 4.367188 34.554688 8.34375 36.429688 12.25 37.671875 C 12.3125 37.6875 12.375 37.664062 12.414062 37.609375 C 13.335938 36.320312 14.164062 34.960938 14.867188 33.539062 C 14.90625 33.453125 14.867188 33.351562 14.78125 33.320312 C 13.476562 32.8125 12.234375 32.195312 11.039062 31.492188 C 10.945312 31.4375 10.9375 31.304688 11.023438 31.234375 C 11.273438 31.039062 11.53125 30.84375 11.765625 30.640625 C 11.8125 30.601562 11.875 30.59375 11.921875 30.617188 C 19.78125 34.28125 28.28125 34.28125 36.046875 30.617188 C 36.09375 30.59375 36.15625 30.601562 36.203125 30.640625 C 36.445312 30.835938 36.695312 31.039062 36.945312 31.234375 C 37.039062 31.304688 37.03125 31.4375 36.9375 31.492188 C 35.742188 32.210938 34.5 32.8125 33.1875 33.320312 C 33.101562 33.351562 33.0625 33.453125 33.109375 33.539062 C 33.828125 34.960938 34.648438 36.320312 35.554688 37.609375 C 35.59375 37.664062 35.664062 37.6875 35.726562 37.671875 C 39.648438 36.429688 43.625 34.554688 47.734375 31.476562 C 47.765625 31.445312 47.789062 31.40625 47.796875 31.359375 C 48.796875 20.78125 46.117188 11.59375 40.695312 3.445312 C 40.679688 3.414062 40.664062 3.398438 40.632812 3.382812 Z M 16.039062 25.789062 C 13.671875 25.789062 11.726562 23.570312 11.726562 20.84375 C 11.726562 18.117188 13.640625 15.898438 16.039062 15.898438 C 18.460938 15.898438 20.390625 18.140625 20.351562 20.84375 C 20.351562 23.570312 18.445312 25.789062 16.039062 25.789062 Z M 31.992188 25.789062 C 29.625 25.789062 27.679688 23.570312 27.679688 20.84375 C 27.679688 18.117188 29.585938 15.898438 31.992188 15.898438 C 34.414062 15.898438 36.34375 18.140625 36.304688 20.84375 C 36.304688 23.570312 34.414062 25.789062 31.992188 25.789062 Z M 31.992188 25.789062 "/>
</g>
</svg>
