<?xml version="1.0" encoding="UTF-8"?>
<svg xmlns="http://www.w3.org/2000/svg" xmlns:xlink="http://www.w3.org/1999/xlink" width="48px" height="px" viewBox="0 0 48 48" version="1.1">
<g id="surface1">
<path style=" stroke:none;fill-rule:nonzero;fill:rgb(9.803922%,46.666667%,95.294118%);fill-opacity:1;" d="M 48 24.003906 C 48 37.257812 37.253906 48.003906 24 48.003906 C 10.746094 48.003906 0 37.257812 0 24.003906 C 0 10.75 10.746094 0.00390625 24 0.00390625 C 37.253906 0.00390625 48 10.75 48 24.003906 Z M 48 24.003906 "/>
<path style=" stroke:none;fill-rule:nonzero;fill:rgb(100%,100%,100%);fill-opacity:1;" d="M 33.34375 30.941406 L 34.40625 24.003906 L 27.75 24.003906 L 27.75 19.5 C 27.75 17.605469 28.679688 15.75 31.660156 15.75 L 34.6875 15.75 L 34.6875 9.84375 C 34.6875 9.84375 31.941406 9.375 29.316406 9.375 C 23.835938 9.375 20.25 12.695312 20.25 18.714844 L 20.25 24.003906 L 14.15625 24.003906 L 14.15625 30.941406 L 20.25 30.941406 L 20.25 47.714844 C 21.472656 47.90625 22.722656 48.003906 24 48.003906 C 25.277344 48.003906 26.527344 47.902344 27.75 47.714844 L 27.75 30.941406 Z M 33.34375 30.941406 "/>
</g>
</svg>
