<svg xmlns="http://www.w3.org/2000/svg" width="46.87" height="31.477" viewBox="0 0 46.87 31.477">
  <path id="envelope" d="M41.011,64H5.859C2.623,64,0,66.348,0,69.246V90.231c0,2.9,2.623,5.246,5.859,5.246H41.011c3.236,0,5.859-2.348,5.859-5.246V69.246C46.87,66.348,44.243,64,41.011,64ZM5.859,67.935H41.011a1.4,1.4,0,0,1,1.465,1.312v1.817L27.207,82.383a6.607,6.607,0,0,1-7.55,0L4.394,71.066v-1.82A1.4,1.4,0,0,1,5.859,67.935ZM41.011,91.543H5.859a1.4,1.4,0,0,1-1.465-1.312V76.189l12.459,9.3a11.26,11.26,0,0,0,13.17-.007l12.453-9.289V90.231A1.4,1.4,0,0,1,41.011,91.543Z" transform="translate(0 -64)" fill="#e0e0e2"/>
</svg>
