<?xml version="1.0" encoding="UTF-8"?>
<svg xmlns="http://www.w3.org/2000/svg" xmlns:xlink="http://www.w3.org/1999/xlink" width="48px" height="px" viewBox="0 0 48 48" version="1.1">
<g id="surface1">
<path style=" stroke:none;fill-rule:nonzero;fill:rgb(11.372549%,63.137255%,94.901961%);fill-opacity:1;" d="M 48 9.113281 C 46.234375 9.898438 44.335938 10.425781 42.34375 10.664062 C 44.378906 9.445312 45.941406 7.515625 46.675781 5.214844 C 44.773438 6.34375 42.664062 7.164062 40.421875 7.605469 C 38.625 5.691406 36.0625 4.496094 33.230469 4.496094 C 26.875 4.496094 22.203125 10.429688 23.636719 16.585938 C 15.457031 16.175781 8.199219 12.257812 3.34375 6.296875 C 0.761719 10.722656 2.003906 16.515625 6.386719 19.445312 C 4.777344 19.394531 3.257812 18.953125 1.929688 18.214844 C 1.820312 22.777344 5.09375 27.042969 9.828125 27.992188 C 8.441406 28.371094 6.925781 28.457031 5.378906 28.160156 C 6.632812 32.074219 10.269531 34.921875 14.578125 35 C 10.441406 38.246094 5.222656 39.695312 0 39.078125 C 4.359375 41.875 9.535156 43.503906 15.097656 43.503906 C 33.378906 43.503906 43.710938 28.0625 43.085938 14.210938 C 45.011719 12.820312 46.679688 11.089844 48 9.113281 Z M 48 9.113281 "/>
</g>
</svg>
