<svg id="svg" version="1.1" xmlns="http://www.w3.org/2000/svg" xmlns:xlink="http://www.w3.org/1999/xlink" width="48" height="48" viewBox="0, 0, 400,400"><g id="svgg"><path id="path0" d="M187.855 102.488 C 188.186 103.024,185.947 103.305,183.412 103.045 C 181.282 102.827,180.851 102.890,180.636 103.450 C 180.424 104.003,179.996 104.072,178.030 103.866 C 176.113 103.666,175.633 103.736,175.438 104.245 C 175.252 104.730,174.852 104.812,173.652 104.609 C 172.413 104.399,172.054 104.482,171.846 105.024 C 171.639 105.563,171.272 105.650,170.035 105.452 C 168.825 105.258,168.430 105.345,168.238 105.846 C 168.050 106.336,167.672 106.428,166.642 106.234 C 165.602 106.039,165.235 106.132,165.040 106.639 C 164.854 107.124,164.482 107.236,163.630 107.066 C 162.795 106.899,162.405 107.009,162.232 107.461 C 162.050 107.934,161.662 108.026,160.642 107.834 C 159.602 107.639,159.235 107.732,159.040 108.239 C 158.854 108.724,158.482 108.836,157.630 108.666 C 156.823 108.505,156.405 108.611,156.249 109.017 C 156.126 109.338,155.580 109.600,155.036 109.600 C 154.492 109.600,153.926 109.796,153.778 110.035 C 153.631 110.274,153.182 110.384,152.781 110.279 C 152.362 110.170,151.954 110.343,151.822 110.687 C 151.663 111.100,151.285 111.208,150.596 111.035 C 149.862 110.851,149.600 110.945,149.600 111.392 C 149.600 111.727,149.328 112.000,148.995 112.000 C 148.662 112.000,148.032 112.180,147.595 112.400 C 147.158 112.620,146.442 112.980,146.005 113.200 C 145.568 113.420,144.938 113.600,144.605 113.600 C 144.272 113.600,144.000 113.801,144.000 114.047 C 144.000 114.296,143.647 114.401,143.200 114.284 C 142.680 114.148,142.400 114.272,142.400 114.637 C 142.400 114.947,142.040 115.200,141.600 115.200 C 141.160 115.200,140.800 115.380,140.800 115.600 C 140.800 115.820,140.440 116.000,140.000 116.000 C 139.560 116.000,139.200 116.180,139.200 116.400 C 139.200 116.620,138.840 116.800,138.400 116.800 C 137.960 116.800,137.600 117.001,137.600 117.247 C 137.600 117.496,137.247 117.601,136.799 117.484 C 136.359 117.369,136.091 117.424,136.204 117.606 C 136.316 117.788,135.912 118.188,135.304 118.495 C 133.786 119.262,132.240 120.158,132.000 120.410 C 131.890 120.525,130.945 121.065,129.900 121.609 C 128.855 122.153,128.000 122.734,128.000 122.899 C 128.000 123.065,127.775 123.200,127.500 123.200 C 127.225 123.201,126.464 123.662,125.810 124.225 C 125.155 124.787,123.985 125.543,123.210 125.903 C 122.434 126.264,121.710 126.666,121.600 126.798 C 121.490 126.930,120.770 127.471,120.000 128.000 C 119.230 128.529,118.510 129.069,118.400 129.200 C 118.290 129.331,117.570 129.875,116.800 130.408 C 116.030 130.941,114.742 131.981,113.937 132.719 C 113.132 133.457,111.962 134.452,111.337 134.930 C 109.360 136.443,97.717 148.169,97.466 148.900 C 97.333 149.285,97.078 149.600,96.898 149.600 C 96.719 149.600,96.571 150.590,96.571 151.800 C 96.571 153.326,96.729 154.000,97.086 154.000 C 97.369 154.000,97.600 154.257,97.600 154.572 C 97.600 155.248,97.431 155.074,110.321 167.700 C 123.087 180.205,122.060 179.942,129.552 172.619 C 132.328 169.906,135.228 167.171,135.995 166.543 C 136.763 165.914,138.653 164.186,140.195 162.701 C 141.738 161.217,143.210 160.002,143.467 160.001 C 143.723 160.001,143.993 159.858,144.067 159.686 C 144.306 159.120,146.708 157.600,147.362 157.600 C 147.713 157.600,148.000 157.450,148.000 157.268 C 148.000 157.085,148.495 156.680,149.100 156.368 C 149.705 156.056,150.290 155.711,150.400 155.601 C 150.794 155.205,153.013 153.946,153.700 153.729 C 154.085 153.607,154.400 153.348,154.400 153.153 C 154.400 152.959,154.760 152.800,155.200 152.800 C 155.640 152.800,156.000 152.620,156.000 152.400 C 156.000 152.180,156.225 151.996,156.500 151.991 C 156.775 151.986,157.450 151.630,158.000 151.200 C 158.550 150.770,159.315 150.414,159.700 150.409 C 160.085 150.404,160.400 150.220,160.400 150.000 C 160.400 149.780,160.749 149.600,161.176 149.600 C 161.603 149.600,162.074 149.404,162.222 149.165 C 162.369 148.926,162.818 148.816,163.219 148.921 C 163.621 149.026,164.044 148.862,164.162 148.556 C 164.279 148.250,164.730 148.000,165.164 148.000 C 165.598 148.000,166.074 147.804,166.222 147.565 C 166.369 147.326,166.818 147.216,167.219 147.321 C 167.638 147.430,168.046 147.257,168.178 146.913 C 168.333 146.509,168.717 146.393,169.362 146.555 C 170.026 146.721,170.391 146.600,170.562 146.155 C 170.735 145.705,171.097 145.588,171.783 145.760 C 172.460 145.930,172.871 145.803,173.128 145.342 C 173.365 144.919,173.800 144.759,174.335 144.899 C 174.819 145.025,175.376 144.869,175.660 144.528 C 175.995 144.124,176.551 144.014,177.428 144.179 C 178.398 144.361,178.768 144.259,178.961 143.758 C 179.158 143.244,179.564 143.143,180.780 143.307 C 181.953 143.464,182.405 143.364,182.580 142.907 C 182.771 142.410,183.263 142.349,185.267 142.576 C 187.105 142.784,187.801 142.721,188.045 142.327 C 188.527 141.548,211.479 141.556,211.960 142.336 C 212.209 142.738,212.852 142.801,214.541 142.590 C 216.396 142.358,216.833 142.420,217.033 142.942 C 217.224 143.440,217.648 143.523,219.030 143.334 C 220.440 143.141,220.834 143.224,221.039 143.756 C 221.233 144.263,221.600 144.361,222.601 144.173 C 223.375 144.028,224.018 144.106,224.178 144.364 C 224.326 144.604,224.957 144.800,225.581 144.800 C 226.228 144.800,226.815 145.062,226.948 145.410 C 227.112 145.837,227.484 145.944,228.187 145.767 C 228.905 145.587,229.263 145.698,229.438 146.155 C 229.609 146.600,229.974 146.721,230.638 146.555 C 231.283 146.393,231.667 146.509,231.822 146.913 C 231.954 147.257,232.362 147.430,232.781 147.321 C 233.182 147.216,233.631 147.326,233.778 147.565 C 233.926 147.804,234.402 148.000,234.836 148.000 C 235.270 148.000,235.733 148.280,235.864 148.623 C 235.996 148.966,236.357 149.149,236.667 149.029 C 236.978 148.910,237.540 148.970,237.916 149.163 C 238.292 149.355,239.455 149.920,240.500 150.419 C 241.545 150.918,242.400 151.477,242.400 151.663 C 242.400 151.848,242.760 152.000,243.200 152.000 C 243.640 152.000,244.000 152.180,244.000 152.400 C 244.000 152.620,244.360 152.800,244.800 152.800 C 245.240 152.800,245.600 152.959,245.600 153.153 C 245.600 153.348,245.915 153.607,246.300 153.729 C 246.987 153.946,249.206 155.205,249.600 155.601 C 249.710 155.711,250.295 156.056,250.900 156.368 C 251.505 156.680,252.000 157.085,252.000 157.268 C 252.000 157.450,252.287 157.600,252.638 157.600 C 253.200 157.600,255.456 158.945,256.000 159.604 C 256.110 159.737,256.612 160.128,257.116 160.472 C 257.620 160.816,258.881 161.886,259.918 162.849 C 260.956 163.812,262.613 165.303,263.602 166.161 C 264.591 167.020,267.781 170.035,270.692 172.861 C 275.797 177.819,277.230 178.741,277.745 177.400 C 277.871 177.070,278.236 176.800,278.554 176.800 C 278.873 176.800,279.193 176.665,279.267 176.500 C 279.340 176.335,280.030 175.683,280.800 175.051 C 283.034 173.217,291.200 165.218,291.200 164.864 C 291.200 164.521,296.620 159.272,299.734 156.600 C 300.759 155.720,301.598 154.784,301.599 154.520 C 301.600 154.256,301.828 153.896,302.106 153.720 C 302.456 153.499,302.568 152.596,302.468 150.800 L 302.323 148.200 296.027 141.970 C 292.564 138.544,289.034 135.214,288.183 134.570 C 287.332 133.927,286.158 132.905,285.574 132.300 C 284.991 131.695,284.353 131.199,284.157 131.198 C 283.961 131.197,283.260 130.696,282.600 130.085 C 281.940 129.474,280.770 128.539,280.000 128.006 C 279.230 127.474,278.510 126.940,278.400 126.819 C 278.290 126.698,277.660 126.333,277.000 126.008 C 276.340 125.683,275.174 124.918,274.409 124.308 C 273.644 123.699,272.789 123.200,272.509 123.200 C 272.229 123.200,272.000 123.020,272.000 122.800 C 272.000 122.580,271.764 122.400,271.475 122.400 C 271.187 122.400,270.564 122.040,270.092 121.600 C 269.620 121.160,268.956 120.800,268.617 120.800 C 268.278 120.800,268.000 120.641,268.000 120.447 C 268.000 120.252,267.685 119.987,267.300 119.858 C 266.017 119.426,263.799 117.976,263.886 117.627 C 263.934 117.437,263.619 117.375,263.186 117.488 C 262.751 117.601,262.400 117.494,262.400 117.247 C 262.400 117.001,262.040 116.800,261.600 116.800 C 261.160 116.800,260.800 116.620,260.800 116.400 C 260.800 116.180,260.440 116.000,260.000 116.000 C 259.560 116.000,259.200 115.820,259.200 115.600 C 259.200 115.380,258.924 115.200,258.587 115.200 C 258.251 115.200,257.879 114.950,257.762 114.644 C 257.638 114.323,257.222 114.174,256.774 114.291 C 256.348 114.402,256.000 114.292,256.000 114.047 C 256.000 113.801,255.728 113.600,255.395 113.600 C 255.062 113.600,254.432 113.420,253.995 113.200 C 253.558 112.980,252.842 112.620,252.405 112.400 C 251.968 112.180,251.338 112.000,251.005 112.000 C 250.672 112.000,250.400 111.727,250.400 111.392 C 250.400 110.945,250.138 110.851,249.404 111.035 C 248.715 111.208,248.337 111.100,248.178 110.687 C 248.046 110.343,247.638 110.170,247.219 110.279 C 246.818 110.384,246.369 110.274,246.222 110.035 C 246.074 109.796,245.508 109.600,244.964 109.600 C 244.420 109.600,243.877 109.344,243.756 109.030 C 243.601 108.625,243.141 108.525,242.169 108.683 C 241.066 108.861,240.800 108.774,240.800 108.234 C 240.800 107.685,240.548 107.611,239.404 107.826 C 238.338 108.026,237.952 107.940,237.768 107.461 C 237.595 107.009,237.205 106.899,236.370 107.066 C 235.518 107.236,235.146 107.124,234.960 106.639 C 234.765 106.132,234.398 106.039,233.358 106.234 C 232.328 106.428,231.950 106.336,231.762 105.846 C 231.570 105.345,231.175 105.258,229.965 105.452 C 228.728 105.650,228.361 105.563,228.154 105.024 C 227.946 104.482,227.587 104.399,226.348 104.609 C 225.128 104.815,224.749 104.733,224.553 104.221 C 224.345 103.679,223.913 103.615,221.959 103.836 C 220.013 104.057,219.572 103.992,219.367 103.459 C 219.160 102.919,218.663 102.856,216.241 103.060 C 214.073 103.244,213.217 103.167,212.780 102.752 C 212.153 102.155,187.487 101.894,187.855 102.488 M62.400 182.416 C 62.400 182.771,54.274 190.904,52.774 192.051 C 50.727 193.616,42.000 202.274,42.000 202.740 C 42.000 202.961,41.746 203.397,41.435 203.708 C 40.892 204.250,40.679 205.855,40.761 208.770 C 40.796 210.008,71.504 241.600,72.673 241.600 C 72.815 241.600,74.566 243.273,76.565 245.317 C 82.823 251.716,106.005 274.400,106.287 274.400 C 106.685 274.400,108.800 276.494,108.800 276.888 C 108.800 277.289,109.523 278.006,117.588 285.600 C 120.976 288.790,124.926 292.615,126.365 294.100 C 127.804 295.585,129.201 296.800,129.471 296.800 C 129.740 296.800,130.104 297.025,130.280 297.300 C 130.610 297.815,135.602 298.040,135.601 297.540 C 135.600 297.396,136.185 296.932,136.900 296.508 C 138.032 295.836,168.393 266.200,174.400 259.903 C 175.610 258.634,176.707 257.597,176.838 257.598 C 176.969 257.599,181.975 252.770,187.962 246.867 C 197.336 237.623,199.014 236.133,200.048 236.133 C 201.084 236.133,202.725 237.602,212.038 246.867 C 217.971 252.770,222.927 257.600,223.050 257.600 C 223.173 257.600,226.272 260.565,229.937 264.189 C 233.601 267.813,242.355 276.469,249.388 283.424 C 256.422 290.380,262.677 296.329,263.288 296.646 C 263.900 296.962,264.400 297.351,264.399 297.510 C 264.398 298.031,269.378 297.834,269.720 297.300 C 269.896 297.025,270.271 296.800,270.554 296.800 C 270.836 296.800,272.241 295.585,273.674 294.100 C 275.108 292.615,277.793 289.969,279.641 288.220 C 286.687 281.549,291.200 277.104,291.200 276.832 C 291.200 276.442,293.366 274.400,293.780 274.400 C 294.096 274.400,315.493 253.409,323.435 245.308 C 325.434 243.268,327.204 241.600,327.370 241.600 C 327.761 241.600,357.423 212.128,358.432 210.736 C 359.311 209.524,359.750 203.999,358.968 204.000 C 358.730 204.000,358.280 203.506,357.968 202.901 C 357.417 201.836,353.136 197.441,348.749 193.439 C 345.180 190.183,337.600 182.707,337.600 182.444 C 337.600 182.216,335.279 182.169,332.058 182.332 C 330.693 182.401,322.140 190.413,308.600 204.304 C 306.180 206.787,304.050 208.814,303.867 208.809 C 303.685 208.804,295.951 216.360,286.681 225.600 C 277.412 234.840,269.640 242.400,269.410 242.400 C 269.180 242.400,268.768 242.760,268.493 243.200 C 267.331 245.060,266.419 244.400,256.877 234.800 C 251.848 229.740,247.563 225.600,247.356 225.600 C 246.901 225.600,241.600 220.315,241.600 219.861 C 241.600 219.686,241.372 219.331,241.094 219.071 C 231.844 210.447,228.474 207.216,221.403 200.200 C 216.747 195.580,211.827 190.836,210.469 189.659 C 209.111 188.481,207.988 187.311,207.973 187.059 C 207.838 184.804,201.649 181.760,198.345 182.324 C 196.675 182.609,192.088 186.047,192.027 187.059 C 192.012 187.311,190.889 188.481,189.531 189.659 C 188.173 190.836,183.249 195.580,178.589 200.200 C 173.928 204.820,168.964 209.671,167.558 210.981 C 161.393 216.718,158.400 219.648,158.400 219.944 C 158.400 220.120,157.137 221.419,155.593 222.831 C 154.049 224.244,148.549 229.585,143.370 234.700 C 133.624 244.326,132.734 244.970,131.523 243.263 C 131.235 242.858,130.782 242.453,130.516 242.363 C 130.249 242.273,122.460 234.685,113.207 225.500 C 103.953 216.315,96.251 208.804,96.091 208.809 C 95.931 208.814,93.820 206.789,91.400 204.309 C 78.622 191.212,69.195 182.401,67.887 182.332 C 64.894 182.174,62.400 182.212,62.400 182.416 " stroke="none" fill="#3c9cfc" fill-rule="evenodd"></path></g></svg>