<svg xmlns="http://www.w3.org/2000/svg" width="1267.44" height="1552.824" viewBox="0 0 1267.44 1552.824">
  <path id="SUPS_Icon_White" data-name="SUPS Icon White" d="M630.742,1552.824h-.029a77.161,77.161,0,0,1-38.511-10.292L94.627,1256.154a9.372,9.372,0,0,1-4.642-8.07v-301.2a9.283,9.283,0,0,1,13.9-8.07L613.37,1232.586a34,34,0,0,0,33.664.146L762.8,1167.351a9.672,9.672,0,0,1,4.584-1.2A9.16,9.16,0,0,1,772,1167.41l265.459,153.159a9.278,9.278,0,0,1-.117,16.141L668.406,1543.028A77.629,77.629,0,0,1,630.742,1552.824Zm629.983-247.6L0,575.065V278.278a96.16,96.16,0,0,1,2.628-22.193L1267.44,988.636l-.234,282.2a94.092,94.092,0,0,1-6.468,34.351Zm-87.3-690.417a8.872,8.872,0,0,1-4.584-1.257L659.326,320.3a33.818,33.818,0,0,0-16.963-4.532,34.226,34.226,0,0,0-16.7,4.386L509.9,385.53a9.591,9.591,0,0,1-4.555,1.17,9.2,9.2,0,0,1-4.642-1.228L235.24,232.283a9.278,9.278,0,0,1,.117-16.141L604.319,9.825a77.151,77.151,0,0,1,76.175.468l497.575,286.436a9.29,9.29,0,0,1,4.671,8.041V605.5A9.317,9.317,0,0,1,1173.426,614.8Z" fill="#fff"/>
</svg>
